# xmcd
#
# Track frame offsets: 
#        150
#        15828
#        33095
#        48575
#        60632
#        78932
#        99234
#        117963
#        137314
#        149034
#        170425
#        187048
#        197986
#
# Disc length: 3108 seconds
#
# Revision: 0
# Processed by: cddbd v1.5.2PL0 Copyright (c) Steve Scherf et al.
# Submitted via: ExactAudioCopy v1.0b4
#
DISCID=a80c220d
DTITLE=Zeca Pagodinho - Samba Book Cd 01
DYEAR=1900
DGENRE=Pagode
TTITLE0=01. Não Sou Mais Disso – Gilberto Gil
TTITLE1=02. Mutirão De Amor – Roberta Sá
TTITLE2=03. Dor De Amor – Lenine
TTITLE3=04. Lua De Ogum – Mariene De Castro
TTITLE4=05. Lama Nas Ruas – Beth Carvalho
TTITLE5=06. Quem É Ela – Marcelo D2
TTITLE6=07. Menor Abandonado – Sombrinha
TTITLE7=08. Depois Do Temporal – Jorge Ben Jor
TTITLE8=09. Se Eu For Falar De Tristeza – Arlindo Cruz
TTITLE9=10. Já Mandei Botar Dendê – Nilze Carvalho
TTITLE10=11. Em Nome Da Alegria – Almir Guineto
TTITLE11=12. São José De Madureira – Gabrielzinho Do Irajá
TTITLE12=13. Pout. Pourri Zeca Pagodinho – Rildo Hora E Orquestra Furi
TTITLE12=osa
EXTD=
EXTT0=
EXTT1=
EXTT2=
EXTT3=
EXTT4=
EXTT5=
EXTT6=
EXTT7=
EXTT8=
EXTT9=
EXTT10=
EXTT11=
EXTT12=
PLAYORDER=
